<?xml version="1.0" standalone="no"?>
<!DOCTYPE svg PUBLIC "-//W3C//DTD SVG 20010904//EN"
 "http://www.w3.org/TR/2001/REC-SVG-20010904/DTD/svg10.dtd">
<svg version="1.0" xmlns="http://www.w3.org/2000/svg"
 width="1024.000000pt" height="1024.000000pt" viewBox="0 0 1024.000000 1024.000000"
 preserveAspectRatio="xMidYMid meet">
<metadata>
Created by potrace 1.14, written by Peter Selinger 2001-2017
</metadata>
<g transform="translate(0.000000,1024.000000) scale(0.100000,-0.100000)"
fill="#000000" stroke="none">
<path d="M0 5120 l0 -5120 5120 0 5120 0 0 5120 0 5120 -5120 0 -5120 0 0
-5120z m6948 3063 c-21 -2 -57 -2 -80 0 -24 2 -7 4 37 4 44 0 63 -2 43 -4z
m-194 -22 c-75 -21 -134 -52 -199 -102 -27 -21 -204 -192 -392 -381 l-343
-343 763 -763 763 -763 169 170 c93 94 172 171 175 171 4 0 -71 -80 -166 -177
l-174 -178 -770 770 -770 770 367 366 c203 201 390 381 417 399 51 34 167 80
201 79 11 0 -7 -8 -41 -18z m406 -33 c83 -40 94 -49 483 -437 219 -218 419
-423 444 -456 46 -60 78 -124 89 -173 3 -15 -8 3 -23 41 -15 37 -47 93 -70
125 -24 32 -222 236 -440 453 -426 423 -445 438 -588 481 -47 14 -51 17 -20
13 22 -3 78 -24 125 -47z m-835 -1823 l769 -765 -42 -42 c-23 -23 -44 -39 -47
-36 -3 3 12 21 34 40 l39 36 -759 758 c-418 418 -762 760 -767 762 -4 1 -755
-746 -1670 -1661 -914 -914 -1662 -1660 -1662 -1657 0 7 3323 3330 3330 3330
3 0 352 -344 775 -765z m1862 703 c-3 -8 -6 -5 -6 6 -1 11 2 17 5 13 3 -3 4
-12 1 -19z m3 -238 c-17 -78 -72 -189 -120 -241 l-42 -44 37 45 c82 101 124
223 127 370 l2 95 4 -85 c2 -47 -2 -110 -8 -140z m-450 -585 c0 -2 -10 -9 -22
-15 -22 -11 -22 -10 -4 4 21 17 26 19 26 11z m-792 -790 c-29 -30 -57 -55 -62
-55 -4 0 16 25 45 55 29 30 57 55 62 55 5 0 -15 -25 -45 -55z m-139 -140 c-40
-41 -77 -75 -82 -75 -6 0 23 34 64 75 41 41 78 75 83 75 5 0 -24 -34 -65 -75z
m-190 -189 c-57 -58 -105 -103 -108 -100 -6 5 191 204 203 204 5 0 -38 -47
-95 -104z m-172 -172 c-31 -31 -57 -52 -57 -48 0 12 104 114 109 108 3 -2 -21
-29 -52 -60z m-107 -109 c-24 -25 -48 -45 -54 -45 -5 0 13 22 40 50 26 27 50
47 53 44 3 -2 -15 -25 -39 -49z m-91 -90 c-19 -19 -38 -35 -43 -35 -6 0 5 16
24 35 19 19 38 35 43 35 6 0 -5 -16 -24 -35z m-130 -129 c-46 -46 -86 -82 -88
-80 -6 6 151 164 163 164 4 0 -29 -38 -75 -84z m-152 -152 c-31 -31 -57 -52
-57 -48 0 12 104 114 109 108 3 -2 -21 -29 -52 -60z m-100 -101 c-20 -20 -37
-32 -37 -28 0 12 63 76 68 70 3 -3 -11 -21 -31 -42z m-97 -98 c-30 -29 -57
-52 -59 -49 -3 2 20 29 49 59 30 29 57 52 59 49 3 -2 -20 -29 -49 -59z m-140
-140 c-41 -40 -77 -72 -79 -69 -3 2 29 38 70 78 41 41 76 72 79 70 2 -3 -29
-38 -70 -79z m-143 -141 c-31 -31 -57 -52 -57 -48 0 12 104 114 109 108 3 -2
-21 -29 -52 -60z m-140 -140 c-42 -42 -77 -73 -77 -68 0 11 143 154 149 148 2
-2 -30 -38 -72 -80z m-3130 -136 c-2 -13 -4 -3 -4 22 0 25 2 35 4 23 2 -13 2
-33 0 -45z m3010 15 c-20 -20 -37 -32 -37 -28 0 12 63 76 68 70 3 -3 -11 -21
-31 -42z m-160 -159 c-64 -64 -117 -112 -117 -108 0 11 224 233 229 228 3 -3
-48 -57 -112 -120z m-2860 54 c-2 -13 -4 -3 -4 22 0 25 2 35 4 23 2 -13 2 -33
0 -45z m-10 -80 c-2 -13 -4 -5 -4 17 -1 22 1 32 4 23 2 -10 2 -28 0 -40z m-10
-90 c-2 -13 -4 -3 -4 22 0 25 2 35 4 23 2 -13 2 -33 0 -45z m2720 -45 c-20
-20 -37 -32 -37 -28 0 12 63 76 68 70 3 -3 -11 -21 -31 -42z m-2730 -35 c-2
-13 -4 -5 -4 17 -1 22 1 32 4 23 2 -10 2 -28 0 -40z m2643 -53 c-24 -25 -49
-45 -54 -45 -5 0 12 22 39 49 27 28 52 48 54 45 3 -2 -15 -25 -39 -49z m-2653
-37 c-2 -13 -4 -3 -4 22 0 25 2 35 4 23 2 -13 2 -33 0 -45z m2541 -73 c-29
-30 -57 -55 -62 -55 -4 0 16 25 45 55 29 30 57 55 62 55 5 0 -15 -25 -45 -55z
m-2551 -17 c-2 -13 -4 -3 -4 22 0 25 2 35 4 23 2 -13 2 -33 0 -45z m-10 -90
c-2 -13 -4 -3 -4 22 0 25 2 35 4 23 2 -13 2 -33 0 -45z m2402 -53 c-52 -52
-98 -95 -103 -95 -6 0 33 43 85 95 51 52 98 95 103 95 5 0 -33 -43 -85 -95z
m-2412 -27 c-2 -13 -4 -5 -4 17 -1 22 1 32 4 23 2 -10 2 -28 0 -40z m-10 -90
c-2 -13 -4 -3 -4 22 0 25 2 35 4 23 2 -13 2 -33 0 -45z m2261 -43 c-29 -30
-57 -55 -62 -55 -4 0 16 25 45 55 29 30 57 55 62 55 5 0 -15 -25 -45 -55z
m-2271 -47 c-2 -13 -4 -3 -4 22 0 25 2 35 4 23 2 -13 2 -33 0 -45z m2132 -93
c-40 -41 -77 -75 -82 -75 -6 0 23 34 64 75 41 41 78 75 83 75 5 0 -24 -34 -65
-75z m-2142 13 c-2 -13 -4 -5 -4 17 -1 22 1 32 4 23 2 -10 2 -28 0 -40z m-10
-90 c-2 -13 -4 -3 -4 22 0 25 2 35 4 23 2 -13 2 -33 0 -45z m1982 -92 c-46
-46 -86 -82 -88 -80 -6 6 151 164 163 164 4 0 -29 -38 -75 -84z m-1992 12 c-2
-13 -4 -5 -4 17 -1 22 1 32 4 23 2 -10 2 -28 0 -40z m-10 -90 c-2 -13 -4 -5
-4 17 -1 22 1 32 4 23 2 -10 2 -28 0 -40z m1870 -55 c-20 -20 -37 -32 -37 -28
0 12 63 76 68 70 3 -3 -11 -21 -31 -42z m-1880 -65 c-2 -18 -4 -4 -4 32 0 36
2 50 4 33 2 -18 2 -48 0 -65z m1761 -54 c-73 -70 -79 -74 -120 -72 l-43 1 42
4 c36 4 51 13 115 78 40 40 75 71 78 69 2 -3 -30 -39 -72 -80z m-1693 -109
c50 -61 122 -96 219 -106 l81 -8 -80 3 c-63 2 -91 8 -131 29 -79 40 -155 136
-154 194 1 10 8 -2 17 -27 8 -25 30 -63 48 -85z m1513 28 c-10 -2 -28 -2 -40
0 -13 2 -5 4 17 4 22 1 32 -1 23 -4z m-85 -10 c-13 -2 -35 -2 -50 0 -16 2 -5
4 22 4 28 0 40 -2 28 -4z m-95 -10 c-10 -2 -28 -2 -40 0 -13 2 -5 4 17 4 22 1
32 -1 23 -4z m-85 -10 c-13 -2 -33 -2 -45 0 -13 2 -3 4 22 4 25 0 35 -2 23 -4z
m-90 -10 c-13 -2 -33 -2 -45 0 -13 2 -3 4 22 4 25 0 35 -2 23 -4z m-85 -10
c-10 -2 -28 -2 -40 0 -13 2 -5 4 17 4 22 1 32 -1 23 -4z m-90 -10 c-10 -2 -28
-2 -40 0 -13 2 -5 4 17 4 22 1 32 -1 23 -4z m-85 -10 c-13 -2 -33 -2 -45 0
-13 2 -3 4 22 4 25 0 35 -2 23 -4z m-90 -10 c-13 -2 -33 -2 -45 0 -13 2 -3 4
22 4 25 0 35 -2 23 -4z m-90 -10 c-13 -2 -33 -2 -45 0 -13 2 -3 4 22 4 25 0
35 -2 23 -4z m-90 -10 c-13 -2 -33 -2 -45 0 -13 2 -3 4 22 4 25 0 35 -2 23 -4z
m-85 -10 c-10 -2 -28 -2 -40 0 -13 2 -5 4 17 4 22 1 32 -1 23 -4z m-90 -10
c-10 -2 -28 -2 -40 0 -13 2 -5 4 17 4 22 1 32 -1 23 -4z m-85 -10 c-13 -2 -33
-2 -45 0 -13 2 -3 4 22 4 25 0 35 -2 23 -4z"/>
</g>
</svg>
